# xmcd CD database file
#
# Track frame offsets:
#	150
#	37631
#	86333
#	132146
#	158017
#	188390
#
# Disc length: 2747 seconds
#
# Revision: 0
# Processed by: cddbd v1.5.2PL0 Copyright (c) Steve Scherf et al.
# Submitted via: CDex 1.70beta2
#
DISCID=310ab906
DTITLE=Chris Rea - The Road To Hell And Back - Deluxe Edition CD 2
DYEAR=2006
DGENRE=Blues
TTITLE0=Somewhere Between Highway 61 and 49 - Live at Moscow Kremlin Palace 10th March 2006
TTITLE1=I Can Hear Your Heartbeat - Live at Oxford New Theatre 14th April 2006
TTITLE2=The Road To Hell - Live at Plymouth Pavillion 13th April 2006
TTITLE3=On The Beach - Live at Brighton Centre 10th April 2006
TTITLE4=Let's Dance - Live at Plymouth Pavillion 13th April 2006
TTITLE5=Fool (If You Think It's Over) - Live at Oxford New Theatre 14th April 2006
EXTD=YEAR: 2006
EXTT0=
EXTT1=
EXTT2=
EXTT3=
EXTT4=
EXTT5=
PLAYORDER=
